<svg width="206" height="48" viewBox="0 0 206 48" fill="none" xmlns="http://www.w3.org/2000/svg">
<g clip-path="url(#clip0_670_1217)">
<path d="M71.1779 6.09289C71.1779 8.53075 69.6145 10.5534 67.1342 11.2738C70.0537 11.8912 71.9227 14.2936 71.9227 17.3454C71.9227 21.4617 68.2549 24.0699 62.5459 24.0699H50.3514V0.0213013H62.0365C67.6085 0.0213013 71.1744 2.38819 71.1744 6.09289H71.1779ZM63.9442 7.36327C63.9442 6.12837 63.0623 5.37253 61.6676 5.37253H57.3884V9.45692H61.6676C63.0588 9.45692 63.9442 8.63366 63.9442 7.36327ZM64.6222 16.4547C64.6222 15.1524 63.4664 14.3291 61.6676 14.361H57.3884V18.7187H61.6676C63.4664 18.7541 64.6222 17.8599 64.6222 16.4547Z" fill="#E8E7E7"/>
<path d="M90.0406 24.0734L86.8822 17.5867H83.1441V24.0734H76.0789V0.0213013H87.1878C93.5749 0.0213013 97.2427 3.10855 97.2427 8.56623C97.2427 12.1325 95.8163 14.7407 93.2341 16.2169L98.0578 24.0734H90.0406ZM83.1441 12.097H87.1878C89.2922 12.097 90.5184 10.9296 90.5184 8.7685C90.5184 6.60743 89.2958 5.50737 87.1878 5.50737H83.1441V12.0935V12.097Z" fill="#E8E7E7"/>
<path d="M112.178 18.4135C114.521 18.4135 116.186 16.7315 116.186 13.9175V0.0213013H123.251V13.9175C123.251 20.2978 118.937 24.3822 112.142 24.3822C105.348 24.3822 100.865 20.2978 100.865 13.9175V0.0213013H107.93V13.9175C107.93 16.696 109.799 18.4135 112.178 18.4135Z" fill="#E8E7E7"/>
<path d="M135.217 0.0213013L140.958 13.3355L146.699 0.0213013H154.273V24.0734H148.09L148.055 9.83307L143.266 21.7066H138.646L133.858 9.83307V24.0734H127.643V0.0213013H135.217Z" fill="#E8E7E7"/>
<path d="M180.152 6.09289C180.152 8.53075 178.588 10.5534 176.108 11.2738C179.028 11.8912 180.897 14.2936 180.897 17.3454C180.897 21.4617 177.229 24.0699 171.52 24.0699H159.325V0.0213013H171.01C176.582 0.0213013 180.148 2.38819 180.148 6.09289H180.152ZM172.915 7.36327C172.915 6.12837 172.033 5.37253 170.638 5.37253H166.359V9.45692H170.638C172.029 9.45692 172.915 8.63366 172.915 7.36327ZM173.596 16.4547C173.596 15.1524 172.44 14.3291 170.641 14.361H166.362V18.7187H170.641C172.44 18.7541 173.596 17.8599 173.596 16.4547Z" fill="#E8E7E7"/>
<path d="M197.11 16.4547V24.0734H190.045V16.5931L181.315 0.0213013H188.38L193.576 9.83307L198.639 0.0213013H205.669L197.107 16.4547H197.11Z" fill="#E8E7E7"/>
<path d="M16.7823 42.7814C15.1241 41.2059 12.8545 39.0484 12.8545 35.262C12.8545 30.5212 14.569 27.5049 15.3735 26.3516C15.1381 25.8619 14.98 25.3225 14.9238 24.7477C14.7974 23.4879 15.1662 22.2566 15.9602 21.2772C16.7542 20.2978 18.0647 19.5632 19.3013 19.5632V21.3552C18.5284 21.4333 17.8328 21.8095 17.3409 22.4163C16.8491 23.0231 16.6207 23.786 16.698 24.5667C16.8561 26.1777 18.286 27.3559 19.881 27.1962L20.3377 27.15L23.9388 31.2735L21.4866 32.4658C22.3438 33.4736 23.6086 35.1272 24.111 36.5999C24.652 36.5395 25.1544 36.4757 25.5268 36.4295C25.5584 36.426 25.5865 36.4224 25.6182 36.4189C25.7236 35.8547 25.9343 34.8717 26.8864 34.7759C27.1991 34.744 28.218 34.602 29.0647 34.4814C28.9838 27.3097 28.7731 19.5455 28.5166 18.2396C27.958 17.7357 25.5233 16.2453 23.4399 15.0707L22.5897 14.5917L24.7539 11.3625C19.3119 11.1957 10.058 11.8948 4.05736 17.6789C3.50226 18.2112 2.9823 18.7932 2.51153 19.3929V39.1442L18.6022 45.0064C18.4019 44.3215 17.6466 43.6012 16.7894 42.785L16.7823 42.7814ZM27.5469 22.1004C27.5469 22.1004 27.2729 22.505 27.1886 22.5263C27.0094 22.5653 26.7494 22.5014 26.4473 22.7924C26.0011 23.2182 25.3828 23.1756 24.9085 22.6682C24.4342 22.1608 24.0512 21.3304 24.0969 20.422C24.6274 20.3262 27.5469 22.1004 27.5469 22.1004Z" fill="#E8E7E7"/>
<path d="M2.50802 16.6924C2.6099 16.593 2.72233 16.4688 2.82421 16.3695C9.5837 9.85078 19.9794 9.32205 25.5725 9.58464C25.6814 9.58819 25.7692 9.59529 25.8325 9.59529C26.4051 9.61303 26.8092 10.0211 26.9954 10.3937L27.2307 10.8657L25.1474 13.9742C25.6146 14.2439 26.2295 14.6059 26.8548 14.982C29.6057 16.6463 29.8762 17.0331 30.0238 17.2424C30.2556 17.5689 30.491 17.9096 30.7053 26.7526C30.8072 30.9931 30.8494 35.2052 30.8494 35.2478L30.8564 36.0356L30.0835 36.1492C29.9992 36.1634 28.2672 36.4118 27.4099 36.5218C27.3888 36.614 27.3678 36.7169 27.3537 36.795C27.2624 37.2705 27.1148 38.0654 26.3173 38.1435C26.2224 38.1541 26.0081 38.1789 25.7411 38.2144C25.1825 38.2854 24.3429 38.3883 23.5102 38.4735L22.6214 38.5622L22.5335 37.6644C22.4071 36.3976 20.531 34.0058 19.3786 32.7958L18.5249 31.898L21.0404 30.6737L19.5824 29.0059C18.4301 29.0059 17.3585 28.5765 16.5294 27.8526C15.7986 29.0698 14.6393 31.5786 14.6393 35.2514C14.6393 38.2606 16.4275 39.9603 18.005 41.4578C19.1678 42.5614 20.2675 43.6118 20.415 45.017L36.5725 39.13V2.47333H2.50802V12.64C3.07365 12.239 3.68847 11.8309 4.30329 11.4654C9.29913 8.49168 15.089 7.23904 19.3013 7.02258V8.83235C15.6054 9.05236 10.3461 10.1808 5.89128 12.8316C4.6511 13.5697 3.50929 14.4142 2.51153 15.3085V16.6924H2.50802Z" fill="#E8E7E7"/>
<path d="M38.0305 1.00425V40.1733L19.5508 46.9226L1.0711 40.1733V1.00425H38.0305ZM39.0036 0.0213013H0.10144V40.8617L19.5508 47.9659L39.0001 40.8617V0.0213013H39.0036Z" fill="#E8E7E7"/>
<path d="M61.7519 33.2217L59.268 40.9008H57.81L56.0534 35.5353H55.9937L54.2687 40.9008H52.8107L50.3128 33.2217H51.7567L53.5274 38.8426H53.5871L55.3859 33.2217H56.7561L58.5267 38.8426H58.5865L60.3853 33.2217H61.7554H61.7519Z" fill="#BF9659"/>
<path d="M68.8908 34.0627C69.5267 34.7227 69.8429 35.6311 69.8429 36.7809V37.338C69.8429 38.4913 69.5302 39.3962 68.9049 40.0562C68.2795 40.7162 67.4258 41.0462 66.3472 41.0462C65.2687 41.0462 64.415 40.7162 63.7896 40.0562C63.1642 39.3962 62.8516 38.4877 62.8516 37.338V36.7809C62.8516 35.6276 63.1678 34.7227 63.8037 34.0627C64.4396 33.4026 65.2862 33.0726 66.3472 33.0726C67.4082 33.0726 68.2549 33.4026 68.8908 34.0627ZM64.8014 34.8895C64.436 35.3508 64.2498 36.025 64.2498 36.9193V37.2032C64.2498 38.0761 64.429 38.7468 64.7944 39.2152C65.1563 39.6871 65.6727 39.9214 66.3508 39.9214C67.0288 39.9214 67.5172 39.6871 67.8896 39.2223C68.262 38.7574 68.4482 38.0832 68.4482 37.1996V36.9157C68.4482 36.0428 68.2655 35.3721 67.9036 34.9037C67.5417 34.4317 67.0218 34.1975 66.3508 34.1975C65.6797 34.1975 65.1703 34.4282 64.8049 34.8895H64.8014Z" fill="#BF9659"/>
<path d="M76.9256 33.7539C77.3226 34.2117 77.5194 34.783 77.5194 35.475L77.4737 36.0463H76.2405V35.7163C76.2405 35.4147 76.1668 35.1521 76.0157 34.9214C75.8681 34.6908 75.6784 34.5133 75.4501 34.3891C75.2217 34.2649 74.9933 34.2011 74.765 34.2011C74.2907 34.2011 73.9183 34.3927 73.6478 34.7724C73.3808 35.1521 73.2473 35.6702 73.2473 36.3196V40.9043H71.849V33.2252H72.8467L73.054 34.3678C73.1138 34.1691 73.2473 33.9669 73.4545 33.7681C73.6618 33.5694 73.9218 33.4026 74.2345 33.2713C74.5472 33.14 74.8915 33.0762 75.2674 33.0762C75.97 33.0762 76.5216 33.3033 76.9186 33.761L76.9256 33.7539Z" fill="#BF9659"/>
<path d="M80.5408 30.0812V37.5048L83.931 33.2217H85.4628L82.5328 36.9476L85.6561 40.9007H83.9592L81.6826 38.0477L80.5372 39.2507V40.9043H79.139V30.0847H80.5372L80.5408 30.0812Z" fill="#BF9659"/>
<path d="M95.1418 33.3423C95.5845 33.5233 95.9253 33.7717 96.1677 34.0946C96.4101 34.414 96.5331 34.7724 96.5331 35.1627L96.519 35.4324H95.1348V35.2976C95.1348 34.5666 94.5727 34.2011 93.4555 34.2011C92.3382 34.2011 91.7902 34.5382 91.7902 35.2089C91.7902 35.5211 91.9483 35.7482 92.2645 35.8937C92.5806 36.0392 93.069 36.1776 93.7225 36.3089C94.3478 36.4402 94.8607 36.5751 95.2613 36.7134C95.6618 36.8518 96.0061 37.0754 96.2871 37.3735C96.5682 37.6751 96.7122 38.0796 96.7122 38.5906C96.7122 39.4104 96.4347 40.0278 95.8796 40.4394C95.3245 40.8511 94.527 41.0569 93.4836 41.0569H93.2587C92.6334 41.0569 92.0888 40.9575 91.6215 40.7624C91.1543 40.5672 90.7959 40.301 90.543 39.9675C90.29 39.6304 90.1671 39.2542 90.1776 38.8319V38.5019H91.5618V38.651C91.5618 39.5026 92.2715 39.9284 93.6908 39.9284C94.1089 39.9284 94.4813 39.8326 94.8151 39.6446C95.1488 39.4565 95.314 39.1939 95.314 38.8639C95.314 38.5835 95.2226 38.3635 95.0399 38.2038C94.8572 38.0442 94.6324 37.9235 94.3619 37.8419C94.0913 37.7603 93.7225 37.6822 93.2447 37.6006C92.6298 37.4799 92.1345 37.3593 91.7586 37.2315C91.3826 37.1073 91.0594 36.8944 90.7924 36.5928C90.5254 36.2912 90.3919 35.8831 90.3919 35.3614C90.3919 34.6517 90.6694 34.0911 91.2245 33.6865C91.7796 33.282 92.5385 33.0762 93.5011 33.0762H93.6346C94.2003 33.0762 94.7027 33.1649 95.1453 33.3459L95.1418 33.3423Z" fill="#BF9659"/>
<path d="M100.31 33.2216H102.08V34.3501H100.31V38.9348C100.31 39.2968 100.38 39.5558 100.517 39.7155C100.658 39.8752 100.868 39.9568 101.156 39.9568C101.413 39.9568 101.722 39.8823 102.08 39.7332V40.7836C101.722 40.9646 101.262 41.0533 100.696 41.0533C100.131 41.0533 99.6669 40.8794 99.3647 40.5281C99.0626 40.1768 98.9115 39.6232 98.9115 38.8603V34.3536H98.0789V33.2252H98.9572L99.4315 30.7767H100.31V33.2252V33.2216Z" fill="#BF9659"/>
<path d="M108.893 33.7539C109.29 34.2117 109.486 34.783 109.486 35.475L109.441 36.0463H108.208V35.7163C108.208 35.4147 108.134 35.1521 107.983 34.9214C107.835 34.6908 107.645 34.5133 107.417 34.3891C107.189 34.2649 106.96 34.2011 106.732 34.2011C106.258 34.2011 105.885 34.3927 105.615 34.7724C105.348 35.1521 105.214 35.6702 105.214 36.3196V40.9043H103.816V33.2252H104.814L105.021 34.3678C105.081 34.1691 105.214 33.9669 105.422 33.7681C105.629 33.5694 105.889 33.4026 106.202 33.2713C106.514 33.14 106.859 33.0762 107.234 33.0762C107.937 33.0762 108.489 33.3033 108.886 33.761L108.893 33.7539Z" fill="#BF9659"/>
<path d="M116.689 34.0627C117.324 34.7227 117.641 35.6311 117.641 36.7809V37.338C117.641 38.4913 117.328 39.3962 116.703 40.0562C116.077 40.7162 115.224 41.0462 114.145 41.0462C113.066 41.0462 112.213 40.7162 111.587 40.0562C110.962 39.3962 110.649 38.4877 110.649 37.338V36.7809C110.649 35.6276 110.965 34.7227 111.601 34.0627C112.237 33.4026 113.084 33.0726 114.145 33.0726C115.206 33.0726 116.053 33.4026 116.689 34.0627ZM112.599 34.8895C112.234 35.3508 112.048 36.025 112.048 36.9193V37.2032C112.048 38.0761 112.227 38.7468 112.592 39.2152C112.954 39.6871 113.47 39.9214 114.148 39.9214C114.827 39.9214 115.315 39.6871 115.687 39.2223C116.06 38.7574 116.246 38.0832 116.246 37.1996V36.9157C116.246 36.0428 116.063 35.3721 115.701 34.9037C115.339 34.4317 114.82 34.1975 114.148 34.1975C113.477 34.1975 112.968 34.4282 112.603 34.8895H112.599Z" fill="#BF9659"/>
<path d="M125.363 33.7469C125.837 34.1975 126.076 34.8576 126.076 35.7305V40.9008H124.678V35.986C124.678 34.7937 124.144 34.1975 123.072 34.1975C122.714 34.1975 122.384 34.2933 122.074 34.4814C121.765 34.673 121.519 34.9285 121.33 35.255C121.14 35.5815 121.049 35.9399 121.049 36.3302V40.8972H119.65V33.2181H120.662L120.855 34.3466C121.491 33.4949 122.338 33.0691 123.399 33.0691C124.232 33.0691 124.885 33.2962 125.363 33.7469Z" fill="#BF9659"/>
<path d="M135.031 33.1259C134.764 33.4701 134.392 33.6936 133.914 33.793L133.886 33.8391C134.381 34.2792 134.631 34.8292 134.631 35.4928C134.631 36.2131 134.364 36.7951 133.826 37.2351C133.292 37.6751 132.561 37.8951 131.641 37.8951H130.629C130.331 37.8951 130.085 37.9732 129.884 38.1293C129.688 38.2855 129.586 38.4842 129.586 38.7219C129.586 38.9597 129.681 39.1513 129.867 39.2933C130.056 39.4352 130.309 39.5026 130.626 39.5026H133.496C134.083 39.5026 134.55 39.6872 134.901 40.0598C135.253 40.4288 135.428 40.9008 135.428 41.4721C135.428 42.1534 135.172 42.6999 134.662 43.1115C134.153 43.5231 133.464 43.729 132.604 43.729H129.614C129.277 43.729 128.967 43.6403 128.683 43.4593C128.402 43.2783 128.177 43.0512 128.012 42.7744C127.847 42.4976 127.766 42.2173 127.766 41.9263C127.766 41.504 127.868 41.1385 128.071 40.8298C128.275 40.5211 128.546 40.2904 128.883 40.1378C128.426 39.8575 128.198 39.4423 128.198 38.8923C128.198 38.5303 128.303 38.2216 128.511 37.959C128.718 37.7 129.013 37.5048 129.389 37.3735C128.725 37.0044 128.391 36.3764 128.391 35.4963C128.391 34.7547 128.662 34.1656 129.203 33.7327C129.744 33.2962 130.496 33.0797 131.458 33.0797H131.518C132.073 33.0797 132.579 33.1649 133.036 33.3352C133.738 32.9839 134.142 32.4871 134.241 31.8484H135.432C135.432 32.3594 135.298 32.7888 135.031 33.133V33.1259ZM130.018 40.8546C129.779 40.8546 129.575 40.9398 129.407 41.1101C129.238 41.2805 129.154 41.4863 129.154 41.7276C129.154 41.9689 129.238 42.1747 129.407 42.345C129.575 42.5154 129.779 42.6005 130.018 42.6005H132.888C133.204 42.6005 133.478 42.5083 133.707 42.3237C133.935 42.1392 134.048 41.9263 134.048 41.685C134.048 41.4437 133.963 41.2343 133.795 41.0853C133.626 40.9362 133.387 40.8617 133.081 40.8617H130.018V40.8546ZM130.25 34.5063C129.937 34.7121 129.782 35.0385 129.782 35.4892C129.782 35.9399 129.937 36.2663 130.25 36.4651C130.562 36.6638 130.98 36.7667 131.507 36.7667C132.034 36.7667 132.456 36.6673 132.772 36.4651C133.088 36.2663 133.247 35.9399 133.247 35.4892C133.247 35.0385 133.088 34.7121 132.772 34.5063C132.456 34.3004 132.034 34.1975 131.507 34.1975C130.98 34.1975 130.562 34.3004 130.25 34.5063Z" fill="#BF9659"/>
<path d="M141.629 33.4701C142.11 33.7362 142.483 34.1124 142.753 34.6056C143.02 35.0953 143.154 35.6666 143.154 36.3196V37.3877H137.842C137.863 38.2003 138.049 38.8248 138.407 39.2649C138.766 39.7049 139.296 39.9249 139.999 39.9249C140.624 39.9249 141.085 39.7404 141.383 39.3678C141.682 38.9987 141.829 38.5552 141.829 38.0442H143.154C143.154 38.6439 143.017 39.1726 142.746 39.6233C142.472 40.0739 142.096 40.4252 141.615 40.6736C141.134 40.9256 140.586 41.0498 139.971 41.0498H139.911C138.84 41.0498 137.993 40.702 137.375 40.0065C136.756 39.311 136.444 38.3813 136.444 37.2209V36.9193C136.444 36.1563 136.584 35.4857 136.862 34.9072C137.139 34.3253 137.536 33.8746 138.053 33.5552C138.569 33.2359 139.173 33.0726 139.869 33.0726H139.974C140.6 33.0726 141.151 33.2075 141.633 33.4701H141.629ZM138.52 34.7227C138.169 35.074 137.951 35.5957 137.873 36.2841H141.77V36.1031C141.77 35.5318 141.597 35.0705 141.257 34.7192C140.916 34.3679 140.459 34.194 139.897 34.194C139.335 34.194 138.871 34.3714 138.52 34.7192V34.7227Z" fill="#BF9659"/>
<path d="M150.265 33.7539C150.662 34.2117 150.858 34.783 150.858 35.475L150.813 36.0463H149.58V35.7163C149.58 35.4147 149.506 35.1521 149.355 34.9214C149.207 34.6908 149.017 34.5133 148.789 34.3891C148.561 34.2649 148.332 34.2011 148.104 34.2011C147.63 34.2011 147.257 34.3927 146.987 34.7724C146.72 35.1521 146.586 35.6702 146.586 36.3196V40.9043H145.188V33.2252H146.186L146.393 34.3678C146.453 34.1691 146.586 33.9669 146.794 33.7681C147.001 33.5694 147.261 33.4026 147.574 33.2713C147.886 33.14 148.23 33.0762 148.606 33.0762C149.309 33.0762 149.861 33.3033 150.258 33.761L150.265 33.7539Z" fill="#BF9659"/>
</g>
<defs>
<clipPath id="clip0_670_1217">
<rect width="205.571" height="47.9446" fill="white" transform="translate(0.10144 0.0213013)"/>
</clipPath>
</defs>
</svg>
