<svg xmlns="http://www.w3.org/2000/svg" viewBox="0 0 160 80" width="100%" height="100%">
  <!-- Centered Official DJI Logo Vector -->
  <g fill="#111827" transform="translate(10, 10)">
    <!-- D -->
    <path d="M 5 10 H 38 C 56 10, 68 22, 68 38 C 68 54, 56 66, 38 66 H 5 Z M 21 24 V 52 H 36 C 46 52, 52 46, 52 38 C 52 30, 46 24, 36 24 Z" />
    <!-- J -->
    <path d="M 80 10 H 96 V 50 C 96 58, 89 65, 78 65 C 67 65, 60 58, 60 50 H 75 C 75 52, 76 54, 78 54 C 80 54, 80 52, 80 50 Z" />
    <!-- I -->
    <path d="M 105 10 H 120 V 66 H 105 Z" />
  </g>
</svg>
