<svg xmlns="http://www.w3.org/2000/svg" viewBox="0 0 380 110" width="100%" height="100%">
  <!-- Exact John Deere Official Logo Vector from User Image 1 -->
  <g>
    <!-- Green Shield Frame with Yellow Inner Border -->
    <rect x="5" y="5" width="100" height="100" rx="20" fill="#367c2b" stroke="#ffe100" stroke-width="7" />

    <!-- Crisp Leaping Deer (Yellow Silhouette) -->
    <!-- Deer Head, Antlers, Jumping Body & Legs -->
    <path d="M 38 68 C 34 64 28 58 24 50 C 20 44 26 38 32 44 C 40 50 48 40 48 30 C 48 24 42 20 38 22 C 34 24 32 28 28 26 C 24 24 28 18 34 16 C 40 14 46 16 50 20 C 53 16 50 10 46 8 C 50 9 54 14 54 18 C 58 14 56 8 53 5 C 60 9 60 16 58 20 C 64 25 70 30 70 38 C 70 45 64 52 74 56 C 82 60 88 52 86 70 L 74 70 C 66 60 56 65 48 70 Z" fill="#ffe100" />

    <!-- Inner Front Leg Cutout -->
    <path d="M 30 52 L 20 45 L 26 40 L 36 48 Z" fill="#367c2b" opacity="0.3" />

    <!-- JOHN DEERE Typography -->
    <text x="120" y="70" font-family="'Montserrat', system-ui, sans-serif" font-weight="900" font-size="34" fill="#367c2b" letter-spacing="1">JOHN DEERE</text>
  </g>
</svg>
